# xmcd
#
# Track frame offsets: 
#        160
#        20274
#        41555
#        70794
#        97207
#        125095
#        148925
#        174245
#        196042
#        218059
#
# Disc length: 3315 seconds
#
# Revision: 4
# Processed by: cddbd v1.5.2PL0 Copyright (c) Steve Scherf et al.
# Submitted via: ExactAudioCopy v0.99pb5
#
DISCID=8e0cf10a
DTITLE=Ария - Генератор зла
DYEAR=1998
DGENRE=Heavy Metal
TTITLE0=Смотри!
TTITLE1=Грязь
TTITLE2=Дезертир
TTITLE3=Пытка тишиной
TTITLE4=Беги за солнцем
TTITLE5=Обман
TTITLE6=Отшельник
TTITLE7=Закат
TTITLE8=Дьявольский зной
TTITLE9=Замкнутый круг
EXTD=
EXTT0=
EXTT1=
EXTT2=
EXTT3=
EXTT4=
EXTT5=
EXTT6=
EXTT7=
EXTT8=
EXTT9=
PLAYORDER=
